# xmcd CD database file
# Copyright (C) 1997 Ti Kan
# 
# Track frame offsets:
#     150
#     11740
#     32310
#     42950
#     52307
#     63877
#     76017
#     86515
#     100015
#     111650
#     120555
# 
# Disc length: 1720 seconds
# 
# Revision: 1
# Processed by: cddbd v1.4b41PL1 Copyright (c) Steve Scherf et al.
# Submitted via: DiscPlay 4.0.3
# 
DISCID=8306b60b
DTITLE=Fats Domino - Greatest Hits
DYEAR=1900
DGENRE=
TTITLE0=Ain't That A Shame
TTITLE1=Jambalaya (On The Bayou)
TTITLE2=Walking To New Orleans
TTITLE3=My Blue Heaven
TTITLE4=Please Don't Leave Me
TTITLE5=Blueberry Hill
TTITLE6=I'm Gonna Be A Wheel Someday
TTITLE7=When The Saints Go Marching In
TTITLE8=Blue Monday
TTITLE9=I'm Ready
TTITLE10=Ballin' The Jack
EXTD=
EXTT0=
EXTT1=
EXTT2=
EXTT3=
EXTT4=
EXTT5=
EXTT6=
EXTT7=
EXTT8=
EXTT9=
EXTT10=
PLAYORDER=
